<svg xmlns="http://www.w3.org/2000/svg" viewBox="0 0 1000 400" role="img" aria-label="Four fingerprint patterns labelled A to D">
<rect width="1000" height="400" fill="#EFE6CE"/>
<rect x="20" y="40" width="210" height="270" fill="none" stroke="#B5892A" stroke-width="3" rx="4"/><path d="M109,200 L109,150 L125,124 L141,150 L141,200" fill="none" stroke="#15120A" stroke-width="5" stroke-linejoin="miter" stroke-linecap="round"/><path d="M98,200 L98,150 L125,111 L152,150 L152,200" fill="none" stroke="#15120A" stroke-width="5" stroke-linejoin="miter" stroke-linecap="round"/><path d="M87,200 L87,150 L125,98 L163,150 L163,200" fill="none" stroke="#15120A" stroke-width="5" stroke-linejoin="miter" stroke-linecap="round"/><path d="M76,200 L76,150 L125,85 L174,150 L174,200" fill="none" stroke="#15120A" stroke-width="5" stroke-linejoin="miter" stroke-linecap="round"/><path d="M65,200 L65,150 L125,72 L185,150 L185,200" fill="none" stroke="#15120A" stroke-width="5" stroke-linejoin="miter" stroke-linecap="round"/><path d="M54,200 L54,150 L125,59 L196,150 L196,200" fill="none" stroke="#15120A" stroke-width="5" stroke-linejoin="miter" stroke-linecap="round"/><text x="125" y="365" font-family="Courier New, monospace" font-size="52" font-weight="bold" fill="#15120A" text-anchor="middle">A</text><rect x="270" y="40" width="210" height="270" fill="none" stroke="#B5892A" stroke-width="3" rx="4"/><path d="M361,200 L361,130 A14,12 0 0 1 389,130 L389,200" fill="none" stroke="#15120A" stroke-width="5" stroke-linecap="round"/><path d="M350,200 L350,130 A25,21 0 0 1 400,130 L400,200" fill="none" stroke="#15120A" stroke-width="5" stroke-linecap="round"/><path d="M339,200 L339,130 A36,30 0 0 1 411,130 L411,200" fill="none" stroke="#15120A" stroke-width="5" stroke-linecap="round"/><path d="M328,200 L328,130 A47,39 0 0 1 422,130 L422,200" fill="none" stroke="#15120A" stroke-width="5" stroke-linecap="round"/><path d="M317,200 L317,130 A58,48 0 0 1 433,130 L433,200" fill="none" stroke="#15120A" stroke-width="5" stroke-linecap="round"/><path d="M306,200 L306,130 A69,57 0 0 1 444,130 L444,200" fill="none" stroke="#15120A" stroke-width="5" stroke-linecap="round"/><text x="375" y="365" font-family="Courier New, monospace" font-size="52" font-weight="bold" fill="#15120A" text-anchor="middle">B</text><rect x="520" y="40" width="210" height="270" fill="none" stroke="#B5892A" stroke-width="3" rx="4"/><path d="M601,220 C611,140 617,120 625,120 C639,120 639,160 632.0,220" fill="none" stroke="#15120A" stroke-width="5" stroke-linecap="round"/><path d="M590,220 C600,140 606,120 625,120 C650,120 650,160 637.5,220" fill="none" stroke="#15120A" stroke-width="5" stroke-linecap="round"/><path d="M579,220 C589,140 595,120 625,120 C661,120 661,160 643.0,220" fill="none" stroke="#15120A" stroke-width="5" stroke-linecap="round"/><path d="M568,220 C578,140 584,120 625,120 C672,120 672,160 648.5,220" fill="none" stroke="#15120A" stroke-width="5" stroke-linecap="round"/><path d="M557,220 C567,140 573,120 625,120 C683,120 683,160 654.0,220" fill="none" stroke="#15120A" stroke-width="5" stroke-linecap="round"/><path d="M546,220 C556,140 562,120 625,120 C694,120 694,160 659.5,220" fill="none" stroke="#15120A" stroke-width="5" stroke-linecap="round"/><text x="625" y="365" font-family="Courier New, monospace" font-size="52" font-weight="bold" fill="#15120A" text-anchor="middle">C</text><rect x="770" y="40" width="210" height="270" fill="none" stroke="#B5892A" stroke-width="3" rx="4"/><circle cx="875" cy="130" r="12" fill="none" stroke="#15120A" stroke-width="5"/><circle cx="875" cy="130" r="23" fill="none" stroke="#15120A" stroke-width="5"/><circle cx="875" cy="130" r="34" fill="none" stroke="#15120A" stroke-width="5"/><circle cx="875" cy="130" r="45" fill="none" stroke="#15120A" stroke-width="5"/><circle cx="875" cy="130" r="56" fill="none" stroke="#15120A" stroke-width="5"/><circle cx="875" cy="130" r="67" fill="none" stroke="#15120A" stroke-width="5"/><path d="M803,200 L803,130" fill="none" stroke="#15120A" stroke-width="5"/><path d="M947,200 L947,130" fill="none" stroke="#15120A" stroke-width="5"/><text x="875" y="365" font-family="Courier New, monospace" font-size="52" font-weight="bold" fill="#15120A" text-anchor="middle">D</text>
</svg>
