<svg xmlns="http://www.w3.org/2000/svg" viewBox="0 0 1000 390" role="img" aria-label="Alibi timeline for four suspects from 7pm to 11pm">
<rect width="1000" height="390" fill="#EFE6CE"/>
<text x="500" y="38" font-family="Helvetica, Arial, sans-serif" font-size="26" fill="#B5892A" text-anchor="middle">WHO CANNOT ACCOUNT FOR 9PM?</text><line x1="240" y1="70" x2="240" y2="360" stroke="#B5892A" stroke-width="2" stroke-dasharray="4 6"/><text x="240.0" y="60" font-family="Helvetica, Arial, sans-serif" font-size="22" fill="#B5892A" text-anchor="middle">7pm</text><line x1="415" y1="70" x2="415" y2="360" stroke="#B5892A" stroke-width="2" stroke-dasharray="4 6"/><text x="415.0" y="60" font-family="Helvetica, Arial, sans-serif" font-size="22" fill="#B5892A" text-anchor="middle">8pm</text><line x1="590" y1="70" x2="590" y2="360" stroke="#B5892A" stroke-width="2" stroke-dasharray="4 6"/><text x="590.0" y="60" font-family="Helvetica, Arial, sans-serif" font-size="22" fill="#B5892A" text-anchor="middle">9pm</text><line x1="765" y1="70" x2="765" y2="360" stroke="#B5892A" stroke-width="2" stroke-dasharray="4 6"/><text x="765.0" y="60" font-family="Helvetica, Arial, sans-serif" font-size="22" fill="#B5892A" text-anchor="middle">10pm</text><line x1="940" y1="70" x2="940" y2="360" stroke="#B5892A" stroke-width="2" stroke-dasharray="4 6"/><text x="940.0" y="60" font-family="Helvetica, Arial, sans-serif" font-size="22" fill="#B5892A" text-anchor="middle">11pm</text><text x="210" y="132" font-family="Helvetica, Arial, sans-serif" font-size="24" fill="#15120A" text-anchor="end">A  BUTLER</text><rect x="240" y="110" width="700" height="32" fill="#15120A" rx="3"/><text x="210" y="194" font-family="Helvetica, Arial, sans-serif" font-size="24" fill="#15120A" text-anchor="end">B  COOK</text><rect x="240" y="172" width="700" height="32" fill="#15120A" rx="3"/><text x="210" y="256" font-family="Helvetica, Arial, sans-serif" font-size="24" fill="#15120A" text-anchor="end">C  NEPHEW</text><rect x="240" y="234" width="262" height="32" fill="#15120A" rx="3"/><rect x="678" y="234" width="262" height="32" fill="#15120A" rx="3"/><text x="210" y="318" font-family="Helvetica, Arial, sans-serif" font-size="24" fill="#15120A" text-anchor="end">D  DOCTOR</text><rect x="240" y="296" width="700" height="32" fill="#15120A" rx="3"/>
</svg>
